<?xml version="1.0" encoding="UTF-8"?>
<svg xmlns="http://www.w3.org/2000/svg" width="900" height="1200" viewBox="0 0 900 1200" role="img" aria-labelledby="chart-title chart-desc" data-map-scale="0.15" data-label-priority="runway,taxiway,facility,hotspot" data-label-overlaps="0" data-label-overlap-items=""><title id="chart-title">KESSINGEN INTL airport diagram</title><desc id="chart-desc">Procedurally generated fictional FAA-style airport diagram for Kessingen, OSTMARK.</desc><metadata>{&quot;seed&quot;:&quot;AUDIT-BASIC-GA-1&quot;,&quot;role&quot;:&quot;basic-ga&quot;,&quot;archetype&quot;:&quot;none&quot;,&quot;id&quot;:&quot;KSN&quot;,&quot;icao&quot;:&quot;LKSN&quot;}</metadata><defs><style>text{font-family:Futura,"Avenir Next",Avenir,"Century Gothic",sans-serif;fill:#000000;font-weight:500;letter-spacing:.06em}.title{font-size:17px}.margin{font-size:10px}.small{font-size:8px}.micro{font-size:6.5px}.runway-end{font-weight:700}.hdg{font-size:7.5px}.dims{font-size:8px}.elev{font-size:7px}.twy{font-size:7px}.minor{font-size:7px}.blast{font-size:6.5px}.hdg,.dims,.elev,.twy,.minor,.blast{letter-spacing:.04em}.thin{stroke:#000000;stroke-width:.52;fill:none}.halo{paint-order:stroke;stroke:#FFFFFF;stroke-width:2.6px;stroke-linejoin:round}.centerlights{fill:none;stroke:#FFFFFF;stroke-width:.85;stroke-dasharray:.9 3.6;stroke-linecap:butt}.hotspot{stroke-width:1.2}.hot-text{font-size:7px;letter-spacing:.03em}.underline{text-decoration:underline}</style><clipPath id="plot-clip"><rect x="39" y="73" width="822" height="1054"/></clipPath></defs><rect width="900" height="1200" fill="#FFFFFF"/><g id="margins"><text x="40" y="24" class="micro">58179</text><text x="40" y="42" class="title">AIRPORT DIAGRAM</text><text x="450" y="37" class="margin" text-anchor="middle">AL-235 (FAA)</text><text x="860" y="28" class="margin" text-anchor="end">KESSINGEN INTL (KSN)</text><text x="860" y="42" class="small" text-anchor="end">KESSINGEN, OSTMARK</text><text x="40" y="1160" class="small">KESSINGEN, OSTMARK</text><text x="40" y="1175" class="margin">KESSINGEN INTL (KSN)</text><text x="450" y="1172" class="margin" text-anchor="middle">AL-235 (FAA)</text><text x="860" y="1158" class="micro" text-anchor="end">58179</text><text x="860" y="1178" class="title" text-anchor="end">AIRPORT DIAGRAM</text><text x="17" y="600" class="micro" text-anchor="middle" transform="rotate(-90 17 600)">NE-2, 16 APR 2026 to 14 MAY 2026</text><text x="883" y="600" class="micro" text-anchor="middle" transform="rotate(90 883 600)">NE-2, 16 APR 2026 to 14 MAY 2026</text></g><rect x="38" y="72" width="824" height="1056" fill="none" stroke="#000000" stroke-width="1.04"/><g clip-path="url(#plot-clip)"><g id="graticule" class="thin"><path d="M62 939.47H838"/><path d="M72 936.87V942.07"/><path d="M165.27 936.87V942.07"/><path d="M258.54 936.87V942.07"/><path d="M351.81 936.87V942.07"/><path d="M445.08 936.87V942.07"/><path d="M538.35 936.87V942.07"/><path d="M631.62 936.87V942.07"/><path d="M724.88 936.87V942.07"/><path d="M818.15 936.87V942.07"/><text x="835" y="936.47" class="micro halo" text-anchor="end">1°33.5&apos;E</text><text x="65" y="936.47" class="micro halo">1°33.5&apos;E</text><path d="M670.99 102V1072"/><path d="M668.39 112H673.59"/><path d="M668.39 205.27H673.59"/><path d="M668.39 298.54H673.59"/><path d="M668.39 391.81H673.59"/><path d="M668.39 485.08H673.59"/><path d="M668.39 578.35H673.59"/><path d="M668.39 671.62H673.59"/><path d="M668.39 764.88H673.59"/><path d="M668.39 858.15H673.59"/><path d="M668.39 951.42H673.59"/><path d="M668.39 1044.69H673.59"/><path d="M62 761.85H838"/><path d="M72 759.25V764.45"/><path d="M165.27 759.25V764.45"/><path d="M258.54 759.25V764.45"/><path d="M351.81 759.25V764.45"/><path d="M445.08 759.25V764.45"/><path d="M538.35 759.25V764.45"/><path d="M631.62 759.25V764.45"/><path d="M724.88 759.25V764.45"/><path d="M818.15 759.25V764.45"/><text x="835" y="758.85" class="micro halo" text-anchor="end">1°33.8&apos;E</text><text x="65" y="758.85" class="micro halo">1°33.8&apos;E</text><path d="M437.82 102V1072"/><path d="M435.22 112H440.42"/><path d="M435.22 205.27H440.42"/><path d="M435.22 298.54H440.42"/><path d="M435.22 391.81H440.42"/><path d="M435.22 485.08H440.42"/><path d="M435.22 578.35H440.42"/><path d="M435.22 671.62H440.42"/><path d="M435.22 764.88H440.42"/><path d="M435.22 858.15H440.42"/><path d="M435.22 951.42H440.42"/><path d="M435.22 1044.69H440.42"/><text x="441.82" y="1067" class="micro halo">40°23&apos;N</text><text x="441.82" y="112" class="micro halo">40°23&apos;N</text><path d="M62 584.24H838"/><path d="M72 581.64V586.84"/><path d="M165.27 581.64V586.84"/><path d="M258.54 581.64V586.84"/><path d="M351.81 581.64V586.84"/><path d="M445.08 581.64V586.84"/><path d="M538.35 581.64V586.84"/><path d="M631.62 581.64V586.84"/><path d="M724.88 581.64V586.84"/><path d="M818.15 581.64V586.84"/><text x="835" y="581.24" class="micro halo" text-anchor="end">1°34&apos;E</text><text x="65" y="581.24" class="micro halo">1°34&apos;E</text><path d="M204.64 102V1072"/><path d="M202.04 112H207.24"/><path d="M202.04 205.27H207.24"/><path d="M202.04 298.54H207.24"/><path d="M202.04 391.81H207.24"/><path d="M202.04 485.08H207.24"/><path d="M202.04 578.35H207.24"/><path d="M202.04 671.62H207.24"/><path d="M202.04 764.88H207.24"/><path d="M202.04 858.15H207.24"/><path d="M202.04 951.42H207.24"/><path d="M202.04 1044.69H207.24"/><text x="208.64" y="1067" class="micro halo">40°23.3&apos;N</text><path d="M62 406.62H838"/><path d="M72 404.02V409.22"/><path d="M165.27 404.02V409.22"/><path d="M258.54 404.02V409.22"/><path d="M351.81 404.02V409.22"/><path d="M445.08 404.02V409.22"/><path d="M538.35 404.02V409.22"/><path d="M631.62 404.02V409.22"/><path d="M724.88 404.02V409.22"/><path d="M818.15 404.02V409.22"/><text x="835" y="403.62" class="micro halo" text-anchor="end">1°34.3&apos;E</text><text x="65" y="403.62" class="micro halo">1°34.3&apos;E</text><path d="M62 229H838"/><path d="M72 226.4V231.6"/><path d="M165.27 226.4V231.6"/><path d="M258.54 226.4V231.6"/><path d="M351.81 226.4V231.6"/><path d="M445.08 226.4V231.6"/><path d="M538.35 226.4V231.6"/><path d="M631.62 226.4V231.6"/><path d="M724.88 226.4V231.6"/><path d="M818.15 226.4V231.6"/><text x="835" y="226" class="micro halo" text-anchor="end">1°34.5&apos;E</text><text x="65" y="226" class="micro halo">1°34.5&apos;E</text></g><g id="pavement" fill="#CFCFCF" stroke="none"><polygon points="447.11,664.91 388.3,539.89 353.58,556.22 412.38,681.24"/></g><g id="taxiway-ribbons" stroke="#CFCFCF" fill="none"><path d="M556.43 787.29 L531.05 733.34 L525.72 698.6 L390.22 410.51 L366.85 384.24 L341.48 330.29" stroke-width="3.84" stroke-linecap="butt" stroke-linejoin="round"/><path d="M587.95 744.35 L545.6 764.27" stroke-width="3.84" stroke-linecap="butt" stroke-linejoin="round"/><path d="M495.48 547.76 L462.15 563.44" stroke-width="3.84" stroke-linecap="butt" stroke-linejoin="round"/><path d="M394.66 333.39 L352.31 353.31" stroke-width="3.84" stroke-linecap="butt" stroke-linejoin="round"/><path d="M417.7 602.4 L469.1 578.22" stroke-width="7.68" stroke-linecap="butt" stroke-linejoin="round"/></g><g id="pavement-fillets" fill="#CFCFCF" stroke="none"><circle cx="531.05" cy="733.34" r="2.38"/><circle cx="525.72" cy="698.6" r="2.38"/><circle cx="390.22" cy="410.51" r="2.38"/><circle cx="366.85" cy="384.24" r="2.38"/><circle cx="341.48" cy="330.29" r="2.38"/><circle cx="545.6" cy="764.27" r="2.38"/><polygon points="583.78,753.52 578.23,741.71 558.98,755.77 560.68,759.38"/><circle cx="462.15" cy="563.44" r="2.38"/><polygon points="491.32,556.93 485.76,545.12 471.02,557.06 472.72,560.67"/><circle cx="352.31" cy="353.31" r="2.38"/><polygon points="390.49,342.56 384.94,330.76 365.69,344.82 367.39,348.43"/><circle cx="469.1" cy="578.22" r="4.76"/></g><g id="runways"><g id="runway-07-25"><polygon points="583.99,753.97 597.88,747.44 398.62,323.77 384.72,330.31" fill="#000000" stroke="none"/><polygon points="382.64,331.29 400.7,322.79 374.57,267.23 356.51,275.72" fill="#CFCFCF" stroke="none"/><path d="M380.16 318.8L385.14 313.15L392.66 312.92" class="thin" fill="none"/><path d="M367.1 291.02L372.07 285.37L379.6 285.14" class="thin" fill="none"/><text x="606.69" y="787.97" class="runway-end halo" text-anchor="middle" transform="rotate(-25.19 606.69 784.19)" font-size="10.5">07</text><text x="360" y="263.49" class="runway-end halo" text-anchor="middle" transform="rotate(154.81 360 259.71)" font-size="10.5">25</text><text x="487.09" y="592.59" class="elev halo" text-anchor="middle" transform="rotate(64.81 487.09 592.59)" font-size="7">ELEV 259</text><text x="579.57" y="673.27" class="hdg halo" text-anchor="middle" transform="rotate(64.81 579.57 673.27)" font-size="7.5">066.3°</text><path d="M570.61 654.2L566.78 646.06M569.86 647.92L566.78 646.06L566.24 649.62" class="thin"/><text x="377.49" y="359.58" class="elev halo" text-anchor="middle" transform="rotate(64.81 377.49 359.58)" font-size="7">ELEV 252</text><text x="444.07" y="385.18" class="hdg halo" text-anchor="middle" transform="rotate(64.81 444.07 385.18)" font-size="7.5">246.3°</text><path d="M453.04 404.24L456.87 412.38M453.78 410.52L456.87 412.38L457.4 408.82" class="thin"/><text x="514.54" y="527.94" class="dims halo" text-anchor="middle" transform="rotate(64.81 514.54 527.94)" font-size="8">3050 X 100</text></g></g><g id="hold-lines" class="thin"><path d="M568.31 755.14L560.16 758.97"/><path d="M567.12 752.6L558.97 756.43"/><path d="M475.84 558.55L467.7 562.38"/><path d="M474.65 556.01L466.51 559.84"/><path d="M375.02 344.18L366.87 348.01"/><path d="M373.83 341.65L365.68 345.48"/></g><g id="buildings" fill="#000000" stroke="none"><polygon points="377.03,661.82 394.26,653.71 387.4,639.13 370.17,647.23"/><polygon points="364.95,636.12 382.17,628.02 375.31,613.43 358.09,621.53"/><polygon points="352.86,610.42 370.08,602.32 363.22,587.73 346,595.83"/><polygon points="353.42,672.92 370.64,664.82 363.78,650.24 346.56,658.34"/><polygon points="341.33,647.22 358.56,639.12 351.7,624.54 334.47,632.64"/><polygon points="329.25,621.53 346.47,613.43 339.61,598.84 322.39,606.94"/><polygon points="339.97,594.01 362.19,583.55 353.7,565.5 331.47,575.95"/><polygon points="307.02,403.14 320.91,396.6 314.38,382.71 300.49,389.24"/><polygon points="297.87,383.69 311.76,377.15 305.23,363.26 291.34,369.8"/><polygon points="287.57,412.28 301.46,405.75 294.93,391.86 281.04,398.39"/><polygon points="278.43,392.83 292.32,386.3 285.78,372.41 271.89,378.94"/><polygon points="557.07,891.49 582.07,879.73 573.58,861.67 548.58,873.43"/><polygon points="315.82,579.07 328.32,573.19 322.44,560.69 309.94,566.57"/></g><g id="building-labels" class="thin"><path d="M382.22 650.47L407.82 634.27"/><text x="407.82" y="632.27" class="minor halo" text-anchor="middle" font-size="7">HANGARS</text><path d="M346.83 579.75L372.43 563.55"/><text x="372.43" y="561.55" class="minor halo" text-anchor="middle" font-size="7">FBO</text><path d="M310.7 392.92L336.3 376.72"/><text x="336.3" y="374.72" class="minor halo" text-anchor="middle" font-size="7">FUEL FARM</text><path d="M565.32 876.58L613.32 842.18"/><text x="613.32" y="840.18" class="minor halo" text-anchor="middle" font-size="7">FIRE STATION</text><polygon points="319.13,558.28 320.27,561.32 323.51,561.46 320.97,563.48 321.84,566.6 319.13,564.82 316.43,566.6 317.3,563.48 314.76,561.46 318,561.32" fill="#FFFFFF" stroke="#000000" class="thin"/><path d="M319.13 569.88L341.53 556.28"/><text x="341.53" y="554.28" class="minor halo" text-anchor="middle" font-size="7">TWR 416</text><text x="341.53" y="562.28" class="minor halo" text-anchor="middle" font-size="7">BCN</text><path d="M400.34 610.56L460.34 610.56L460.34 662.96"/><text x="460.34" y="660.96" class="minor halo" text-anchor="middle" font-size="7">GENERAL AVIATION PARKING</text><path d="M414.33 661.05h3.2M415.93 659.45v3.2"/><path d="M414.33 640.85h3.2M415.93 639.25v3.2"/><path d="M414.33 620.66h3.2M415.93 619.06v3.2"/><path d="M414.33 600.47h3.2M415.93 598.87v3.2"/><path d="M414.33 580.28h3.2M415.93 578.68v3.2"/><path d="M414.33 560.08h3.2M415.93 558.48v3.2"/><path d="M383.15 661.05h3.2M384.75 659.45v3.2"/><path d="M383.15 640.85h3.2M384.75 639.25v3.2"/><path d="M383.15 620.66h3.2M384.75 619.06v3.2"/><path d="M383.15 600.47h3.2M384.75 598.87v3.2"/><path d="M383.15 580.28h3.2M384.75 578.68v3.2"/><path d="M383.15 560.08h3.2M384.75 558.48v3.2"/></g><g id="taxiway-labels"><text x="462.94" y="552.21" class="twy halo" text-anchor="middle" font-size="7">A</text><text x="569.11" y="759.29" class="twy halo" text-anchor="middle" font-size="7">A1</text><text x="474.99" y="547.46" class="twy halo" text-anchor="middle" font-size="7">A2</text><text x="369.65" y="335.21" class="twy halo" text-anchor="middle" font-size="7">A3</text></g><g id="comm-block" data-layout-slot="top-right"><text x="842" y="98" class="small halo" text-anchor="end">ASOS</text><text x="842" y="108" class="small halo" text-anchor="end">118.1 (542-9481)</text><text x="842" y="119" class="small halo" text-anchor="end">CTAF/UNICOM</text><text x="842" y="129" class="small halo" text-anchor="end">122.95</text></g><g id="field-elevation" data-layout-slot="center-left"><rect x="52" y="587.5" width="81.2" height="21" fill="#FFFFFF" class="thin"/><text x="92.6" y="601.5" class="small" text-anchor="middle">FIELD ELEV 259</text></g><g id="mag-var" class="thin" data-layout-slot="bottom-right"><path d="M758 1058L696 1058"/><polygon points="696,1058 703,1055.4 703,1060.6" fill="#000000" stroke="none"/><path d="M758 1058L699.74 1059.53"/><path d="M706.66 1056.34L699.74 1059.53L706.82 1062.34" fill="none"/><text x="702" y="1066" class="minor halo">N</text><text x="792" y="1084" class="minor halo" text-anchor="middle">VAR 1.5° W</text><text x="758" y="1102" class="minor halo" text-anchor="middle">JANUARY 2019</text><text x="758" y="1113" class="minor halo" text-anchor="middle">ANNUAL RATE OF CHANGE 0.1° W</text></g><g id="bottom-blocks"><g id="pcn-block" data-layout-slot="top-left"><text x="56" y="96" class="minor halo">RWY 07-25  PCN 8 R/C/X/U</text></g><g id="caution-block" data-layout-slot="bottom-left"><text x="193.4" y="1093" class="small halo" text-anchor="middle">CAUTION: BE ALERT TO RUNWAY CROSSING CLEARANCES.</text><text x="193.4" y="1105" class="small underline halo" text-anchor="middle">READBACK OF ALL RUNWAY HOLDING INSTRUCTIONS IS REQUIRED.</text></g></g><g id="hotspots" fill="none" stroke="#945101" class="hotspot"><ellipse cx="582.97" cy="733.76" rx="55.26" ry="35.92" transform="rotate(64.81 582.97 733.76)"/><path d="M615.72 719.07L658.23 684.84"/><rect x="645.23" y="673.84" width="26" height="12" fill="#FFFFFF"/><text x="658.23" y="683.34" class="hot-text" text-anchor="middle" fill="#945101" stroke="none">HS 1</text></g></g></svg>