<?xml version="1.0" encoding="UTF-8"?>
<svg xmlns="http://www.w3.org/2000/svg" width="900" height="1200" viewBox="0 0 900 1200" role="img" aria-labelledby="chart-title chart-desc" data-map-scale="0.14" data-label-priority="runway,taxiway,facility,hotspot" data-label-overlaps="0" data-label-overlap-items=""><title id="chart-title">STONEBROOK INTL airport diagram</title><desc id="chart-desc">Procedurally generated fictional FAA-style airport diagram for Stonebrook, CALVERT.</desc><metadata>{&quot;seed&quot;:&quot;AUDIT-BUSINESS-GA-2&quot;,&quot;role&quot;:&quot;business-ga&quot;,&quot;archetype&quot;:&quot;none&quot;,&quot;id&quot;:&quot;STN&quot;,&quot;icao&quot;:&quot;CSTN&quot;}</metadata><defs><style>text{font-family:Futura,"Avenir Next",Avenir,"Century Gothic",sans-serif;fill:#000000;font-weight:500;letter-spacing:.06em}.title{font-size:17px}.margin{font-size:10px}.small{font-size:8px}.micro{font-size:6.5px}.runway-end{font-weight:700}.hdg{font-size:7.5px}.dims{font-size:8px}.elev{font-size:7px}.twy{font-size:7px}.minor{font-size:7px}.blast{font-size:6.5px}.hdg,.dims,.elev,.twy,.minor,.blast{letter-spacing:.04em}.thin{stroke:#000000;stroke-width:.52;fill:none}.halo{paint-order:stroke;stroke:#FFFFFF;stroke-width:2.6px;stroke-linejoin:round}.centerlights{fill:none;stroke:#FFFFFF;stroke-width:.85;stroke-dasharray:.9 3.6;stroke-linecap:butt}.hotspot{stroke-width:1.2}.hot-text{font-size:7px;letter-spacing:.03em}.underline{text-decoration:underline}</style><clipPath id="plot-clip"><rect x="39" y="73" width="822" height="1054"/></clipPath></defs><rect width="900" height="1200" fill="#FFFFFF"/><g id="margins"><text x="40" y="24" class="micro">75727</text><text x="40" y="42" class="title">AIRPORT DIAGRAM</text><text x="450" y="37" class="margin" text-anchor="middle">AL-564 (FAA)</text><text x="860" y="28" class="margin" text-anchor="end">STONEBROOK INTL (STN)</text><text x="860" y="42" class="small" text-anchor="end">STONEBROOK, CALVERT</text><text x="40" y="1160" class="small">STONEBROOK, CALVERT</text><text x="40" y="1175" class="margin">STONEBROOK INTL (STN)</text><text x="450" y="1172" class="margin" text-anchor="middle">AL-564 (FAA)</text><text x="860" y="1158" class="micro" text-anchor="end">75727</text><text x="860" y="1178" class="title" text-anchor="end">AIRPORT DIAGRAM</text><text x="17" y="600" class="micro" text-anchor="middle" transform="rotate(-90 17 600)">NW-3, 13 JUN 2024 to 11 JUL 2024</text><text x="883" y="600" class="micro" text-anchor="middle" transform="rotate(90 883 600)">NW-3, 13 JUN 2024 to 11 JUL 2024</text></g><rect x="38" y="72" width="824" height="1056" fill="none" stroke="#000000" stroke-width="1.04"/><g clip-path="url(#plot-clip)"><g id="graticule" class="thin"><path d="M62 997.06H838"/><path d="M72 994.46V999.66"/><path d="M159.09 994.46V999.66"/><path d="M246.18 994.46V999.66"/><path d="M333.27 994.46V999.66"/><path d="M420.36 994.46V999.66"/><path d="M507.45 994.46V999.66"/><path d="M594.54 994.46V999.66"/><path d="M681.63 994.46V999.66"/><path d="M768.72 994.46V999.66"/><text x="65" y="994.06" class="micro halo">109°29&apos;W</text><path d="M62 867.97H838"/><path d="M72 865.37V870.57"/><path d="M159.09 865.37V870.57"/><path d="M246.18 865.37V870.57"/><path d="M333.27 865.37V870.57"/><path d="M420.36 865.37V870.57"/><path d="M507.45 865.37V870.57"/><path d="M594.54 865.37V870.57"/><path d="M681.63 865.37V870.57"/><path d="M768.72 865.37V870.57"/><text x="835" y="864.97" class="micro halo" text-anchor="end">109°28.8&apos;W</text><text x="65" y="864.97" class="micro halo">109°28.8&apos;W</text><path d="M700.51 102V1072"/><path d="M697.91 112H703.11"/><path d="M697.91 199.09H703.11"/><path d="M697.91 286.18H703.11"/><path d="M697.91 373.27H703.11"/><path d="M697.91 460.36H703.11"/><path d="M697.91 547.45H703.11"/><path d="M697.91 634.54H703.11"/><path d="M697.91 721.63H703.11"/><path d="M697.91 808.72H703.11"/><path d="M697.91 895.81H703.11"/><path d="M697.91 982.9H703.11"/><path d="M697.91 1069.99H703.11"/><path d="M62 738.87H838"/><path d="M72 736.27V741.47"/><path d="M159.09 736.27V741.47"/><path d="M246.18 736.27V741.47"/><path d="M333.27 736.27V741.47"/><path d="M420.36 736.27V741.47"/><path d="M507.45 736.27V741.47"/><path d="M594.54 736.27V741.47"/><path d="M681.63 736.27V741.47"/><path d="M768.72 736.27V741.47"/><text x="835" y="735.87" class="micro halo" text-anchor="end">109°28.5&apos;W</text><text x="65" y="735.87" class="micro halo">109°28.5&apos;W</text><path d="M482.79 102V1072"/><path d="M480.19 112H485.39"/><path d="M480.19 199.09H485.39"/><path d="M480.19 286.18H485.39"/><path d="M480.19 373.27H485.39"/><path d="M480.19 460.36H485.39"/><path d="M480.19 547.45H485.39"/><path d="M480.19 634.54H485.39"/><path d="M480.19 721.63H485.39"/><path d="M480.19 808.72H485.39"/><path d="M480.19 895.81H485.39"/><path d="M480.19 982.9H485.39"/><path d="M480.19 1069.99H485.39"/><text x="486.79" y="1067" class="micro halo">53°38&apos;N</text><text x="486.79" y="112" class="micro halo">53°38&apos;N</text><path d="M62 609.78H838"/><path d="M72 607.18V612.38"/><path d="M159.09 607.18V612.38"/><path d="M246.18 607.18V612.38"/><path d="M333.27 607.18V612.38"/><path d="M420.36 607.18V612.38"/><path d="M507.45 607.18V612.38"/><path d="M594.54 607.18V612.38"/><path d="M681.63 607.18V612.38"/><path d="M768.72 607.18V612.38"/><text x="835" y="606.78" class="micro halo" text-anchor="end">109°28.3&apos;W</text><path d="M265.06 102V1072"/><path d="M262.46 112H267.66"/><path d="M262.46 199.09H267.66"/><path d="M262.46 286.18H267.66"/><path d="M262.46 373.27H267.66"/><path d="M262.46 460.36H267.66"/><path d="M262.46 547.45H267.66"/><path d="M262.46 634.54H267.66"/><path d="M262.46 721.63H267.66"/><path d="M262.46 808.72H267.66"/><path d="M262.46 895.81H267.66"/><path d="M262.46 982.9H267.66"/><path d="M262.46 1069.99H267.66"/><text x="269.06" y="112" class="micro halo">53°38.3&apos;N</text><path d="M62 480.68H838"/><path d="M72 478.08V483.28"/><path d="M159.09 478.08V483.28"/><path d="M246.18 478.08V483.28"/><path d="M333.27 478.08V483.28"/><path d="M420.36 478.08V483.28"/><path d="M507.45 478.08V483.28"/><path d="M594.54 478.08V483.28"/><path d="M681.63 478.08V483.28"/><path d="M768.72 478.08V483.28"/><text x="835" y="477.68" class="micro halo" text-anchor="end">109°28&apos;W</text><text x="65" y="477.68" class="micro halo">109°28&apos;W</text><path d="M62 351.59H838"/><path d="M72 348.99V354.19"/><path d="M159.09 348.99V354.19"/><path d="M246.18 348.99V354.19"/><path d="M333.27 348.99V354.19"/><path d="M420.36 348.99V354.19"/><path d="M507.45 348.99V354.19"/><path d="M594.54 348.99V354.19"/><path d="M681.63 348.99V354.19"/><path d="M768.72 348.99V354.19"/><text x="835" y="348.59" class="micro halo" text-anchor="end">109°27.8&apos;W</text><text x="65" y="348.59" class="micro halo">109°27.8&apos;W</text><path d="M62 222.49H838"/><path d="M72 219.89V225.09"/><path d="M159.09 219.89V225.09"/><path d="M246.18 219.89V225.09"/><path d="M333.27 219.89V225.09"/><path d="M420.36 219.89V225.09"/><path d="M507.45 219.89V225.09"/><path d="M594.54 219.89V225.09"/><path d="M681.63 219.89V225.09"/><path d="M768.72 219.89V225.09"/><text x="835" y="219.49" class="micro halo" text-anchor="end">109°27.5&apos;W</text><text x="65" y="219.49" class="micro halo">109°27.5&apos;W</text></g><g id="pavement" fill="#CFCFCF" stroke="none"><polygon points="512.66,616.84 417.67,469.17 455.34,444.93 550.33,592.61"/><polygon points="627.17,847.85 569.01,757.44 605.17,734.18 663.33,824.59"/></g><g id="taxiway-ribbons" stroke="#CFCFCF" fill="none"><path d="M628.88 881.53 L584.77 812.96 L549.92 772.8 L281 354.74 L258.91 306.37 L214.8 237.8" stroke-width="5.02" stroke-linecap="butt" stroke-linejoin="round"/><path d="M571.1 885.21 L613.64 857.84" stroke-width="5.02" stroke-linecap="butt" stroke-linejoin="round"/><path d="M454.08 703.3 L490.25 680.04" stroke-width="5.02" stroke-linecap="butt" stroke-linejoin="round"/><path d="M313.51 484.76 L349.68 461.5" stroke-width="5.02" stroke-linecap="butt" stroke-linejoin="round"/><path d="M187.5 288.85 L230.04 261.49" stroke-width="5.02" stroke-linecap="butt" stroke-linejoin="round"/><path d="M465.16 543 L420.56 571.69" stroke-width="7.17" stroke-linecap="butt" stroke-linejoin="round"/><path d="M601.7 800.32 L577.59 815.83" stroke-width="8.6" stroke-linecap="butt" stroke-linejoin="round"/></g><g id="pavement-fillets" fill="#CFCFCF" stroke="none"><circle cx="584.77" cy="812.96" r="3.11"/><circle cx="549.92" cy="772.8" r="3.11"/><circle cx="281" cy="354.74" r="3.11"/><circle cx="258.91" cy="306.37" r="3.11"/><circle cx="214.8" cy="237.8" r="3.11"/><circle cx="613.64" cy="857.84" r="3.11"/><polygon points="572.51,874.16 581.74,888.51 599.81,869.84 596.98,865.46"/><circle cx="490.25" cy="680.04" r="3.11"/><polygon points="455.5,692.25 464.72,706.59 479.6,689.98 476.78,685.6"/><circle cx="349.68" cy="461.5" r="3.11"/><polygon points="314.93,473.71 324.15,488.06 339.03,471.45 336.21,467.06"/><circle cx="230.04" cy="261.49" r="3.11"/><polygon points="188.91,277.8 198.14,292.15 216.21,273.49 213.39,269.1"/><circle cx="420.56" cy="571.69" r="4.44"/><circle cx="577.59" cy="815.83" r="5.33"/></g><g id="runways"><g id="runway-05-23"><polygon points="571,898.31 583.06,890.55 187.59,275.75 175.54,283.51" fill="#000000" stroke="none"/><polygon points="600.21,947.69 615.88,937.61 584.86,889.39 569.19,899.47" fill="#CFCFCF" stroke="none"/><path d="M577.73 907.45L584.78 906.49L588.58 900.47" class="thin" fill="none"/><path d="M593.24 931.56L600.29 930.6L604.09 924.58" class="thin" fill="none"/><text x="615.08" y="957.36" class="runway-end halo" text-anchor="middle" transform="rotate(-32.75 615.08 953.58)" font-size="10.5">05</text><text x="161.55" y="252.29" class="runway-end halo" text-anchor="middle" transform="rotate(147.25 161.55 248.51)" font-size="10.5">23</text><text x="491.5" y="819.07" class="elev halo" text-anchor="middle" transform="rotate(57.25 491.5 819.07)" font-size="7">ELEV 2523</text><text x="556.12" y="820.96" class="hdg halo" text-anchor="middle" transform="rotate(57.25 556.12 820.96)" font-size="7.5">053.2°</text><path d="M538.33 793.29L533.46 785.72M536.76 787.17L533.46 785.72L533.4 789.33" class="thin"/><text x="194.9" y="357.97" class="elev halo" text-anchor="middle" transform="rotate(57.25 194.9 357.97)" font-size="7">ELEV 2534</text><text x="259.53" y="359.86" class="hdg halo" text-anchor="middle" transform="rotate(57.25 259.53 359.86)" font-size="7.5">233.2°</text><path d="M277.32 387.53L282.19 395.09M278.89 393.65L282.19 395.09L282.25 391.49" class="thin"/><text x="365.12" y="509.23" class="dims halo" text-anchor="middle" transform="rotate(57.25 365.12 509.23)" font-size="8">5100 X 100</text></g><g id="runway-closed-1"><polygon points="717.5,790.34 718.7,779.66 284.25,730.96 283.05,741.64" fill="#FFFFFF" class="thin"/><path d="M688.06 788.67L675.73 773.22M689.61 774.78L674.17 787.11" class="thin"/><path d="M615.65 780.55L603.32 765.1M617.21 766.66L601.76 778.99" class="thin"/><path d="M543.24 772.43L530.91 756.99M544.8 758.54L529.35 770.88" class="thin"/><path d="M470.83 764.32L458.5 748.87M472.39 750.43L456.95 762.76" class="thin"/><path d="M398.43 756.2L386.09 740.75M399.98 742.31L384.54 754.64" class="thin"/><path d="M326.02 748.08L313.69 732.64M327.57 734.19L312.13 746.53" class="thin"/></g></g><g id="hold-lines" class="thin"><path d="M599.75 868.44L592.18 873.31"/><path d="M598.23 866.09L590.66 870.96"/><path d="M482.74 686.53L475.17 691.4"/><path d="M481.22 684.18L473.65 689.05"/><path d="M342.16 467.99L334.59 472.86"/><path d="M340.65 465.64L333.08 470.51"/><path d="M216.15 272.09L208.58 276.96"/><path d="M214.63 269.73L207.07 274.6"/></g><g id="buildings" fill="#000000" stroke="none"><polygon points="539.27,567.34 554.22,557.72 546.08,545.07 531.13,554.68"/><polygon points="524.93,545.04 539.87,535.42 531.73,522.76 516.78,532.38"/><polygon points="510.58,522.73 525.53,513.12 517.39,500.46 502.44,510.08"/><polygon points="496.24,500.43 511.18,490.82 503.04,478.16 488.09,487.78"/><polygon points="481.89,478.13 496.84,468.52 488.7,455.86 473.75,465.47"/><polygon points="559.76,554.16 574.71,544.54 566.57,531.88 551.62,541.5"/><polygon points="545.42,531.85 560.37,522.24 552.23,509.58 537.28,519.2"/><polygon points="531.07,509.55 546.02,499.94 537.88,487.28 522.93,496.9"/><polygon points="516.73,487.25 531.68,477.64 523.54,464.98 508.59,474.59"/><polygon points="502.38,464.95 517.33,455.33 509.19,442.68 494.24,452.29"/><polygon points="472.7,465.3 491.99,452.89 481.91,437.22 462.62,449.63"/><polygon points="651.74,780.07 692.72,753.7 681.87,736.83 640.88,763.19"/><polygon points="651.2,832.23 663.26,824.47 655.5,812.42 643.45,820.17"/><polygon points="640.34,815.35 652.4,807.59 644.65,795.54 632.59,803.29"/><polygon points="668.08,821.37 680.13,813.62 672.38,801.56 660.32,809.31"/><polygon points="657.22,804.49 669.28,796.74 661.52,784.68 649.47,792.44"/><polygon points="547.77,724.42 569.47,710.46 559.39,694.79 537.69,708.75"/><polygon points="483.11,456.96 493.96,449.98 486.98,439.13 476.13,446.11"/></g><g id="building-labels" class="thin"><path d="M542.67 556.2L569.87 577.8"/><text x="569.87" y="575.8" class="minor halo" text-anchor="middle" font-size="7">HANGARS</text><path d="M477.3 451.26L502.9 435.06"/><text x="502.9" y="433.06" class="minor halo" text-anchor="middle" font-size="7">FBO</text><path d="M666.8 758.45L714.8 724.05"/><text x="714.8" y="722.05" class="minor halo" text-anchor="middle" font-size="7">CARGO</text><path d="M653.35 822.32L680.55 843.92"/><text x="680.55" y="841.92" class="minor halo" text-anchor="middle" font-size="7">FUEL FARM</text><path d="M553.58 709.6L601.58 675.2"/><text x="601.58" y="673.2" class="minor halo" text-anchor="middle" font-size="7">FIRE STATION</text><polygon points="485.04,436.44 486.18,439.48 489.42,439.62 486.88,441.64 487.75,444.76 485.04,442.97 482.34,444.76 483.2,441.64 480.67,439.62 483.91,439.48" fill="#FFFFFF" stroke="#000000" class="thin"/><path d="M485.04 448.04L462.64 434.44"/><text x="462.64" y="432.44" class="minor halo" text-anchor="middle" font-size="7">TWR 2670</text><text x="462.64" y="440.44" class="minor halo" text-anchor="middle" font-size="7">BCN</text><path d="M484 530.89L450 558.09"/><text x="450" y="556.09" class="minor halo" text-anchor="middle" font-size="7">GENERAL AVIATION PARKING</text><path d="M504.51 592.28h3.2M506.11 590.68v3.2"/><path d="M504.51 567.72h3.2M506.11 566.12v3.2"/><path d="M504.51 543.17h3.2M506.11 541.57v3.2"/><path d="M504.51 518.61h3.2M506.11 517.01v3.2"/><path d="M504.51 494.05h3.2M506.11 492.45v3.2"/><path d="M504.51 469.49h3.2M506.11 467.89v3.2"/><path d="M460.29 592.28h3.2M461.89 590.68v3.2"/><path d="M460.29 567.72h3.2M461.89 566.12v3.2"/><path d="M460.29 543.17h3.2M461.89 541.57v3.2"/><path d="M460.29 518.61h3.2M461.89 517.01v3.2"/><path d="M460.29 494.05h3.2M461.89 492.45v3.2"/><path d="M460.29 469.49h3.2M461.89 467.89v3.2"/><text x="616.17" y="791.01" class="minor halo" text-anchor="middle" font-size="7">CARGO</text></g><g id="taxiway-labels"><text x="511.1" y="702.29" class="twy halo" text-anchor="middle" font-size="7">A</text><text x="319.82" y="425.24" class="twy halo" text-anchor="middle" font-size="7">A</text><text x="589.39" y="866.9" class="twy halo" text-anchor="middle" font-size="7">A1</text><text x="475.14" y="696.29" class="twy halo" text-anchor="middle" font-size="7">A2</text><text x="328.62" y="468.5" class="twy halo" text-anchor="middle" font-size="7">A3</text><text x="211.74" y="279.8" class="twy halo" text-anchor="middle" font-size="7">A4</text></g><g id="comm-block" data-layout-slot="top-right"><text x="842" y="98" class="small halo" text-anchor="end">ATIS</text><text x="842" y="108" class="small halo" text-anchor="end">128.5</text><text x="842" y="119" class="small halo" text-anchor="end">STONEBROOK TOWER ★</text><text x="842" y="129" class="small halo" text-anchor="end">121.75</text><text x="842" y="140" class="small halo" text-anchor="end">GND CON</text><text x="842" y="150" class="small halo" text-anchor="end">121.65</text><text x="842" y="161" class="small halo" text-anchor="end">CLNC DEL</text><text x="842" y="171" class="small halo" text-anchor="end">118.4</text></g><g id="field-elevation" data-layout-slot="center-left"><rect x="52" y="587.5" width="86" height="21" fill="#FFFFFF" class="thin"/><text x="95" y="601.5" class="small" text-anchor="middle">FIELD ELEV 2534</text></g><g id="mag-var" class="thin" data-layout-slot="bottom-right"><path d="M758 1058L696 1058"/><polygon points="696,1058 703,1055.4 703,1060.6" fill="#000000" stroke="none"/><path d="M758 1058L699.86 1053.93"/><path d="M707.05 1051.43L699.86 1053.93L706.64 1057.42" fill="none"/><text x="690" y="1066" class="minor halo">N</text><text x="724" y="1084" class="minor halo" text-anchor="middle">VAR 4.0° E</text><text x="758" y="1102" class="minor halo" text-anchor="middle">JANUARY 2024</text><text x="758" y="1113" class="minor halo" text-anchor="middle">ANNUAL RATE OF CHANGE 0.1° E</text></g><g id="bottom-blocks"><g id="pcn-block" data-layout-slot="top-left"><text x="56" y="96" class="minor halo">RWY 05-23  PCN 42 F/A/W/U</text></g><g id="caution-block" data-layout-slot="bottom-left"><text x="193.4" y="1081" class="small halo" text-anchor="middle">CAUTION: BE ALERT TO RUNWAY CROSSING CLEARANCES.</text><text x="193.4" y="1093" class="small underline halo" text-anchor="middle">READBACK OF ALL RUNWAY HOLDING INSTRUCTIONS IS REQUIRED.</text><text x="193.4" y="1105" class="small halo" text-anchor="middle">CAUTION: CLOSED RWY NOT AVBL FOR LDG OR DEP.</text></g></g><g id="hotspots" fill="none" stroke="#945101" class="hotspot"><ellipse cx="561.21" cy="869.84" rx="51.6" ry="33.54" transform="rotate(57.25 561.21 869.84)"/><path d="M592.16 883.2L592.16 924.38L638.81 924.38"/><rect x="625.81" y="913.38" width="26" height="12" fill="#FFFFFF"/><text x="638.81" y="922.88" class="hot-text" text-anchor="middle" fill="#945101" stroke="none">HS 1</text></g></g></svg>